<?xml version="1.0" standalone="no"?>
<!DOCTYPE svg PUBLIC "-//W3C//DTD SVG 20010904//EN"
 "http://www.w3.org/TR/2001/REC-SVG-20010904/DTD/svg10.dtd">
<svg version="1.0" xmlns="http://www.w3.org/2000/svg"
 width="16.000000pt" height="16.000000pt" viewBox="0 0 16.000000 16.000000"
 preserveAspectRatio="xMidYMid meet">
<metadata>
Created by potrace 1.11, written by Peter Selinger 2001-2013
</metadata>
<g transform="translate(0.000000,16.000000) scale(0.005333,-0.005333)"
fill="#000000" stroke="none">
<path d="M513 2233 c-10 -26 3 -57 27 -64 14 -3 44 -12 66 -18 74 -20 72 -8
72 -636 0 -587 -6 -691 -42 -770 -21 -46 -115 -161 -159 -193 -16 -13 -16 -15
0 -42 23 -40 35 -42 74 -16 19 13 66 40 104 61 39 21 79 44 90 52 45 31 113
105 138 151 60 110 65 175 67 857 0 220 5 417 10 438 11 51 42 83 104 106 45
16 51 22 54 50 3 26 0 31 -20 32 -13 0 -148 1 -302 2 -206 2 -280 -1 -283 -10z"/>
<path d="M1242 2211 c3 -33 6 -36 58 -49 102 -25 95 18 97 -545 1 -270 -2
-509 -6 -530 -12 -50 -41 -81 -94 -97 -57 -18 -67 -28 -67 -62 l0 -29 414 5
413 5 74 27 c206 74 338 181 422 341 62 119 78 190 76 336 -1 137 -11 181 -59
286 -83 177 -308 324 -520 338 -41 2 -241 5 -443 6 l-368 2 3 -34z m655 -61
c190 -26 349 -167 415 -370 28 -87 35 -333 13 -429 -38 -159 -146 -290 -271
-329 -123 -39 -264 -47 -323 -19 -47 23 -49 45 -50 604 -1 287 2 529 5 537 7
19 92 21 211 6z"/>
</g>
</svg>
